<?xml version="1.0" standalone="no"?>
<!DOCTYPE svg PUBLIC "-//W3C//DTD SVG 20010904//EN"
 "http://www.w3.org/TR/2001/REC-SVG-20010904/DTD/svg10.dtd">
<svg version="1.0" xmlns="http://www.w3.org/2000/svg"
 width="84.000000pt" height="84.000000pt" viewBox="0 0 84.000000 84.000000"
 preserveAspectRatio="xMidYMid meet">
<metadata>
Created by potrace 1.14, written by Peter Selinger 2001-2017
</metadata>
<g transform="translate(0.000000,84.000000) scale(0.100000,-0.100000)"
fill="#000000" stroke="none">
<path d="M109 590 c-42 -12 -77 -40 -87 -68 -20 -59 24 -103 131 -127 79 -18
97 -28 97 -56 0 -42 -96 -34 -115 9 -9 21 -15 22 -69 19 -33 -2 -61 -8 -63
-13 -6 -18 37 -73 69 -90 43 -23 190 -27 241 -7 38 15 67 61 67 106 0 55 -49
86 -187 117 -57 13 -70 34 -31 49 29 11 55 3 72 -21 11 -16 24 -19 67 -17 30
1 57 4 61 6 15 8 -23 63 -55 79 -35 18 -155 27 -198 14z"/>
<path d="M419 475 c-2 -258 -7 -234 46 -233 l44 1 3 100 3 101 29 -100 30
-100 43 -2 c35 -1 43 2 43 16 0 10 4 22 8 28 5 5 17 37 27 72 10 35 21 65 24
67 3 1 6 -39 5 -89 l-1 -93 44 -2 c48 -1 44 -12 44 114 0 36 0 99 0 140 l-1
76 -71 -3 -71 -3 -23 -73 c-25 -78 -25 -78 -25 -89 -1 -5 -13 30 -28 77 l-28
85 -72 3 -72 3 -1 -96z"/>
</g>
</svg>
